HIERARCHY
ROOT Pelvis
{
	OFFSET 0.000000 0.000000 0.000000
	CHANNELS 6 Xposition Yposition Zposition Zrotation Yrotation Xrotation 
	JOINT Left_hip
	{
		OFFSET 0.067986 -0.089946 -0.007639
		CHANNELS 3 Zrotation Yrotation Xrotation
		JOINT Left_knee
		{
			OFFSET 0.036308 -0.388288 -0.004016
			CHANNELS 3 Zrotation Yrotation Xrotation
			JOINT Left_ankle
			{
				OFFSET -0.012264 -0.413250 -0.042878
				CHANNELS 3 Zrotation Yrotation Xrotation
				JOINT Left_foot
				{
					OFFSET 0.024043 -0.058563 0.118570
					CHANNELS 3 Zrotation Yrotation Xrotation
					End Site
					{
						OFFSET 0.000000 0.000000 0.000000
					}
				}
			}
		}
	}
	JOINT Right_hip
	{
		OFFSET -0.065648 -0.089374 -0.003858
		CHANNELS 3 Zrotation Yrotation Xrotation
		JOINT Right_knee
		{
			OFFSET -0.042132 -0.395021 -0.006361
			CHANNELS 3 Zrotation Yrotation Xrotation
			JOINT Right_ankle
			{
				OFFSET 0.014805 -0.413264 -0.041054
				CHANNELS 3 Zrotation Yrotation Xrotation
				JOINT Right_foot
				{
					OFFSET -0.021758 -0.049013 0.121832
					CHANNELS 3 Zrotation Yrotation Xrotation
					End Site
					{
						OFFSET 0.000000 0.000000 0.000000
					}
				}
			}
		}
	}
	JOINT Spine1
	{
		OFFSET -0.002755 0.104406 -0.022277
		CHANNELS 3 Zrotation Yrotation Xrotation
		JOINT Spine2
		{
			OFFSET 0.004136 0.129393 -0.002186
			CHANNELS 3 Zrotation Yrotation Xrotation
			JOINT Spine3
			{
				OFFSET 0.001906 0.049304 0.025578
				CHANNELS 3 Zrotation Yrotation Xrotation
				JOINT Neck
				{
					OFFSET -0.004620 0.210958 -0.044063
					CHANNELS 3 Zrotation Yrotation Xrotation
					JOINT Head
					{
						OFFSET 0.003833 0.067393 0.052435
						CHANNELS 3 Zrotation Yrotation Xrotation
						End Site
						{
							OFFSET 0.000000 0.000000 0.000000
						}
					}
				}
				JOINT Left_collar
				{
					OFFSET 0.070771 0.116689 -0.037192
					CHANNELS 3 Zrotation Yrotation Xrotation
					JOINT Left_shoulder
					{
						OFFSET 0.080652 0.031596 -0.005617
						CHANNELS 3 Zrotation Yrotation Xrotation
						JOINT Left_elbow
						{
							OFFSET 0.262654 -0.015020 -0.027939
							CHANNELS 3 Zrotation Yrotation Xrotation
							JOINT Left_wrist
							{
								OFFSET 0.250438 0.010062 -0.000990
								CHANNELS 3 Zrotation Yrotation Xrotation
								JOINT Left_palm
								{
									OFFSET 0.081198 -0.010037 -0.013706
									CHANNELS 3 Zrotation Yrotation Xrotation
									End Site
									{
										OFFSET 0.000000 0.000000 0.000000
									}
								}
							}
						}
					}
				}
				JOINT Right_collar
				{
					OFFSET -0.072972 0.115556 -0.040762
					CHANNELS 3 Zrotation Yrotation Xrotation
					JOINT Right_shoulder
					{
						OFFSET -0.082917 0.031841 -0.006673
						CHANNELS 3 Zrotation Yrotation Xrotation
						JOINT Right_elbow
						{
							OFFSET -0.252882 -0.013790 -0.020410
							CHANNELS 3 Zrotation Yrotation Xrotation
							JOINT Right_wrist
							{
								OFFSET -0.255570 0.009163 -0.005138
								CHANNELS 3 Zrotation Yrotation Xrotation
								JOINT Right_palm
								{
									OFFSET -0.080804 -0.007282 -0.010415
									CHANNELS 3 Zrotation Yrotation Xrotation
									End Site
									{
										OFFSET 0.000000 0.000000 0.000000
									}
								}
							}
						}
					}
				}
			}
		}
	}
}
MOTION
Frames: 13
Frame Time: 0.100000
0.000000 0.000000 0.000000 175.072230 23.154614 -12.981984 7.298111 6.693632 3.292661 -2.565972 -16.822477 -2.391582 -4.291219 16.230141 -4.800925 3.015601 -1.154729 -4.021788 -4.900898 -6.810711 2.224985 3.816587 10.053638 0.666295 4.437259 -15.713209 -6.346503 2.402855 4.625158 4.931130 0.171577 2.216354 0.489456 1.832723 -3.055426 3.220734 1.564556 1.553287 -0.188694 -3.704959 2.159983 9.476752 5.172111 1.567359 -9.763671 -2.383765 2.782849 -9.026039 5.751903 -2.062871 -15.518566 0.537392 -5.850556 -5.854457 0.775019 -5.767800 26.710784 -6.222048 -8.327363 -9.318807 3.574716 0.694232 -2.919181 -3.672410 -3.619515 -20.218482 -1.519694 6.957957 -2.034012 0.168010 5.379122 26.336474 10.945074 8.072651 -7.219248 
0.000118 -0.000000 0.000066 175.077682 23.130057 -12.993192 7.314825 6.701706 3.335434 -2.566972 -16.796021 -2.430896 -4.273371 16.203838 -4.790377 3.023969 -1.115555 -4.020061 -4.908905 -6.807181 2.232767 3.841188 10.037994 0.679736 4.417517 -15.668090 -6.357469 2.406660 4.595319 4.951213 0.181854 2.209431 0.528601 1.819701 -3.054074 3.309360 1.550845 1.555209 -0.178061 -3.725212 2.127110 9.527550 5.121096 1.551534 -9.742749 -2.501390 2.788755 -9.034302 5.520892 -2.151208 -15.478744 0.620706 -5.917413 -5.978829 0.797911 -5.719889 26.681260 -6.275933 -8.353630 -9.341510 3.651106 0.690945 -2.925367 -3.552229 -3.577387 -20.184545 -1.575130 7.004112 -2.087669 0.214595 5.333704 26.362791 10.978785 8.100817 -7.245638 
-0.000223 -0.000101 0.000549 175.100090 23.124328 -12.940360 7.296826 6.701895 3.374117 -2.547783 -16.749724 -2.525609 -4.283754 16.161392 -4.780389 3.025201 -1.085483 -3.963039 -4.936033 -6.805062 2.292577 3.820312 9.990800 0.541691 4.379671 -15.599679 -6.326105 2.505238 4.534841 5.015737 0.187995 2.223358 0.377875 1.809044 -3.058542 3.434196 1.513109 1.562693 -0.240044 -3.728625 2.170789 9.697599 5.074288 1.606470 -9.657846 -2.635419 2.767271 -9.025041 5.374177 -2.282220 -15.407916 0.638315 -5.902495 -5.997676 0.785472 -5.759508 26.672818 -6.280821 -8.346410 -9.358767 3.730511 0.670335 -2.908950 -3.507799 -3.523859 -20.175330 -1.585109 7.003011 -2.169442 0.229165 5.367650 26.383609 10.999632 8.114858 -7.254902 
-0.000555 -0.000180 0.000891 175.107415 23.122880 -12.988024 7.287501 6.719438 3.460865 -2.561927 -16.752248 -2.503414 -4.296553 16.156040 -4.836991 3.064096 -1.080248 -3.934771 -4.974136 -6.806055 2.343579 3.838680 9.971878 0.625109 4.317409 -15.559160 -6.352435 2.594847 4.498368 5.035058 0.213010 2.211399 0.322525 1.795257 -3.060615 3.559149 1.495430 1.570397 -0.281393 -3.709294 2.083370 9.699737 5.051725 1.631112 -9.722119 -2.858635 2.702714 -8.987887 5.246782 -2.262275 -15.303669 0.703316 -6.134564 -6.081784 0.945839 -5.804244 26.640664 -6.364222 -8.392524 -9.387612 3.832617 0.736424 -2.874893 -3.598987 -3.545151 -20.177482 -1.551679 7.042395 -2.253139 0.143850 5.395728 26.407238 11.055536 8.145439 -7.270740 
-0.000658 -0.000243 0.001206 175.093647 23.162523 -12.950935 7.292999 6.709545 3.442744 -2.559868 -16.772106 -2.528065 -4.314082 16.148966 -4.846644 3.083524 -1.080527 -3.899318 -4.963441 -6.813833 2.348219 3.832961 9.957011 0.587878 4.288025 -15.583039 -6.350896 2.624933 4.487864 5.040620 0.187062 2.213415 0.301935 1.774713 -3.070312 3.493703 1.481839 1.551668 -0.334668 -3.695311 2.023410 9.623607 5.097984 1.604828 -9.749304 -2.958719 2.645885 -8.991841 5.316428 -2.289039 -15.249347 0.624329 -6.045932 -6.100066 0.959850 -5.832747 26.693637 -6.366765 -8.400642 -9.376449 3.907029 0.746896 -2.900115 -3.629151 -3.585575 -20.124889 -1.508692 6.993796 -2.279378 0.126770 5.410624 26.414251 11.064208 8.158768 -7.260455 
-0.000624 -0.000280 0.001424 175.089659 23.121268 -12.931632 7.311100 6.718071 3.459268 -2.547605 -16.759597 -2.549308 -4.336278 16.167844 -4.869060 3.107977 -1.099292 -3.878149 -4.937942 -6.804592 2.360866 3.819385 9.970176 0.541552 4.257699 -15.568108 -6.340293 2.677534 4.493444 5.065362 0.172953 2.215291 0.253123 1.749490 -3.059375 3.480313 1.474322 1.565940 -0.369155 -3.756726 2.092419 9.568750 5.040773 1.705892 -9.780832 -3.119037 2.605182 -8.997012 5.309884 -2.259799 -15.195304 0.638271 -6.070699 -6.218536 1.221056 -5.937705 26.688412 -6.406378 -8.425957 -9.368708 4.032865 0.777200 -2.878613 -3.690707 -3.602215 -20.134113 -1.481583 6.929464 -2.372482 -0.041073 5.503638 26.468394 11.108065 8.175644 -7.251204 
-0.000606 -0.000314 0.001544 175.081721 23.131212 -12.922285 7.318454 6.701625 3.448000 -2.548441 -16.757846 -2.536891 -4.356782 16.167756 -4.901120 3.154473 -1.096472 -3.852333 -4.924503 -6.789875 2.374890 3.809983 9.958794 0.511674 4.211700 -15.568578 -6.331937 2.727145 4.492394 5.090265 0.160806 2.225444 0.239071 1.726146 -3.053259 3.474085 1.461846 1.559788 -0.422824 -3.705988 1.997969 9.526845 5.094225 1.721287 -9.775408 -3.348799 2.583955 -8.993053 5.285911 -2.267161 -15.105783 0.722999 -6.327551 -6.367862 1.338192 -6.010847 26.638379 -6.478122 -8.463198 -9.332755 4.170098 0.774890 -2.875042 -3.739476 -3.663961 -20.050454 -1.449670 6.996914 -2.356597 -0.012610 5.538496 26.471010 11.129636 8.217688 -7.223537 
-0.000670 -0.000344 0.001483 175.072499 23.111740 -12.921589 7.323106 6.703512 3.452208 -2.548128 -16.707485 -2.552412 -4.392549 16.144878 -4.922734 3.241358 -1.081801 -3.870720 -4.919954 -6.776450 2.349747 3.813402 9.906214 0.533952 4.164887 -15.522189 -6.318532 2.718129 4.509645 5.116356 0.193737 2.222641 0.261906 1.707434 -3.036612 3.511230 1.467214 1.579891 -0.470871 -3.605537 1.885017 9.350485 5.135925 1.813642 -9.874714 -3.723105 2.568667 -8.983880 5.007348 -2.201319 -14.919327 1.030856 -7.233612 -6.638733 1.384314 -6.103230 26.329058 -6.628779 -8.516385 -9.235850 4.345474 0.825161 -2.853590 -3.776224 -3.710781 -19.990245 -1.470747 7.196286 -2.440320 0.143614 5.547264 26.506009 11.159982 8.281628 -7.194987 
-0.000701 -0.000377 0.001170 175.090017 23.095370 -12.864108 7.291768 6.638914 3.361406 -2.550118 -16.461362 -2.514551 -4.464439 15.962146 -4.937669 3.427425 -0.963104 -3.943748 -4.937372 -6.704684 2.271410 3.806659 9.679265 0.532341 4.271240 -15.362796 -6.343691 2.353523 4.553017 5.172464 0.266384 2.233190 0.350396 1.677968 -3.026498 3.547677 1.472081 1.588395 -0.509051 -3.525759 1.817810 8.961001 5.152557 1.821944 -10.043924 -4.285677 2.720516 -8.952564 4.371278 -1.951127 -14.603866 2.124528 -9.702768 -7.136167 0.325045 -6.457821 25.466931 -6.807383 -8.490327 -8.969352 4.673163 0.747343 -2.902122 -3.597638 -4.055385 -19.893962 -2.325039 9.116711 -3.187118 1.043844 5.659769 25.997443 11.187058 8.233787 -7.056737 
-0.000761 -0.000370 0.000561 175.174467 22.946003 -12.686294 7.232714 6.387679 3.186240 -2.581822 -15.599760 -2.521682 -4.373945 15.275346 -4.930676 3.853855 -0.230437 -3.922735 -4.993454 -6.416935 2.030901 3.802013 8.896809 0.562208 4.421999 -14.671000 -6.486695 1.635325 4.239839 5.541075 0.404390 2.231102 0.530755 1.693795 -2.970880 3.480471 1.416218 1.501857 -0.529778 -3.272573 1.794378 8.473155 4.778741 2.075811 -10.240624 -5.857860 4.119005 -9.105664 2.255623 -1.523086 -13.597338 6.980198 -18.047905 -10.289740 -0.878743 -6.627239 21.817439 -7.979374 -8.747069 -8.697644 5.744885 -0.474495 -3.445692 -2.660373 -4.454757 -19.249429 -6.189818 18.107155 -6.883822 1.990645 5.829418 22.175151 12.049792 8.267830 -6.871571 
-0.001034 -0.000245 -0.000283 175.377930 22.566691 -12.446012 7.073456 5.896881 2.972632 -2.608018 -13.769873 -2.496371 -3.736001 13.671508 -4.607089 3.482870 1.556003 -4.323256 -5.148342 -5.900796 1.691168 3.742065 7.414142 0.655148 4.978833 -13.203234 -6.826236 0.396937 3.433026 6.292050 0.560190 2.212599 0.646313 1.780446 -2.847077 3.210866 1.288818 1.397605 -0.214235 -2.773287 1.809629 8.208583 4.279179 2.164752 -10.629202 -7.258436 6.107818 -8.959705 -3.487573 -0.964401 -10.424688 15.455462 -31.331847 -14.691830 -0.440282 -7.852018 14.757256 -9.872088 -8.860721 -8.430727 6.692173 -2.379771 -4.078602 1.228323 -4.681834 -17.146998 -15.045231 34.639769 -13.338715 0.968374 7.534286 15.269592 13.772501 7.915680 -6.622098 
-0.000858 0.000158 -0.001224 175.577146 22.221495 -12.150398 6.959094 5.360682 2.708194 -2.653375 -11.599434 -2.613781 -3.244578 11.615593 -4.274093 3.575497 3.676291 -4.662735 -5.340281 -5.339556 1.334832 3.687126 5.379549 0.665409 5.633543 -11.082217 -7.151780 -1.275797 1.960766 6.680987 0.588872 2.104177 0.442620 1.917874 -2.823735 3.673263 1.067099 1.079844 -0.488887 -1.673148 2.064957 8.232849 3.599990 1.922762 -10.693019 -9.316977 7.974498 -8.696257 -11.447206 -1.406665 -6.117402 26.156410 -43.833131 -18.324247 -0.539062 -9.130204 12.094274 -11.679934 -9.148090 -9.308643 8.320774 -3.969524 -4.651098 7.756214 -3.575949 -13.388351 -28.960131 50.914423 -24.651085 1.331563 9.719017 6.014334 15.204970 7.535998 -6.066620 
-0.000246 0.000642 -0.001923 175.743398 21.711499 -12.139345 6.890358 4.967351 2.725964 -2.662224 -9.751301 -2.572399 -2.551999 9.955019 -4.174620 3.473311 5.494139 -4.726023 -5.501029 -4.734816 1.205699 3.735775 3.633813 0.751514 5.057123 -9.122337 -7.126866 -0.708601 0.572778 7.175336 0.346120 1.991504 0.093872 2.247356 -2.858799 5.016916 0.830081 0.726527 -0.982369 -0.615313 2.105926 7.846704 2.913085 1.938808 -10.708828 -12.434893 8.640639 -7.915823 -19.251708 -1.127777 -0.090990 34.736670 -54.618195 -25.162551 3.025557 -9.981903 5.284315 -14.104435 -9.239178 -10.052045 11.122297 -4.080997 -4.583602 14.728372 -1.938690 -7.283163 -41.375884 63.308261 -37.719242 -2.487711 11.125410 -4.697745 17.066170 7.074631 -5.270050 
